<svg width="958.4" height="958.39" version="1.1" viewBox="0 0 958.4 958.39" xml:space="preserve" xmlns="http://www.w3.org/2000/svg"><g transform="matrix(1.3333 0 0 -1.3333 0 958.39)"><g transform="scale(.1)"><g><path d="m3858.5 137.3c-139.35-140.4-366.46-141.04-506.86-1.449l-3214.2 3193.6c-140.39 139.48-140.96 366.6-1.445 506.75l3193.4 3214.2c139.51 140.48 366.63 141.12 507.02 1.69l3214.2-3193.5c140.39-139.35 141.04-366.22 1.68-506.59l-3193.8-3214.6" fill="#fff"/><path d="m3351.8 7028-3193.4-3214.2c-63.43-63.65-95.012-146.84-95.012-230.25 0-84.02 32.062-167.78 96.297-231.61l3214.2-3193.6c63.81-63.441 146.98-94.961 230.49-95.102 84.02 0.1407 167.8 32.09 231.61 96.332l3193.8 3214.7c63.21 63.88 94.8 146.97 94.8 230.24 0 84-32.02 167.7-96.29 231.5l-3214.2 3193.6c-63.89 63.38-146.97 94.94-230.4 94.94-84.13 0-167.88-32.07-231.88-96.46zm-22.49-6914.6-3214.2 3193.6c-76.586 76.08-115.18 176.49-115.07 276.56-0.10547 99.37 37.867 199.09 113.47 274.93l3193.5 3214.1c76.1 76.77 176.49 115.25 276.75 115.25 99.29 0 199.01-37.79 275.01-113.36l3214.2-3193.6c76.7-76 115.06-176.42 115.06-276.46 0-99.23-37.86-198.85-113.19-274.84l-3193.8-3214.7c-76.08-76.609-176.49-114.99-276.56-114.99-99.37 0-199.12 37.891-275.09 113.39" fill="#ee1d99"/><path d="m3347.3 6833.6c129.96 131.01 341.67 131.49 472.69 1.45l2997.1-2978c131-130.05 131.65-341.52 1.69-472.74l-2978-2997c-130.21-131.01-341.76-131.65-472.77-1.449l-2997.3 2977.9c-130.85 129.93-131.65 341.4-1.445 472.41l2977.9 2997.4" fill="#ee1d99"/></g><g fill="#fff"><path d="m3369.8 6811.2-2978-2997.4c-58.723-59.07-87.848-135.98-87.848-213.13 0-77.82 29.66-155.29 89.211-214.44l2997.3-2977.9c59.07-58.731 136.03-87.993 213.26-87.993 77.9 0 155.4 29.77 214.66 89.27l2977.9 2997c58.56 59.23 87.82 136.22 87.82 213.34 0 77.93-29.74 155.4-89.35 214.58l-2997.1 2977.9c-59.15 58.81-136.22 87.98-213.44 88.06-77.82-0.08-155.32-29.76-214.39-89.27l-22.49 22.25 22.49-22.32zm233.91-6554.2c-93.17-0.098-186.68 35.52-257.95 106.38l-2997.3 2977.9c-71.851 71.35-108.01 165.45-108.01 259.37 0 93.11 35.461 186.52 106.41 257.79l2977.9 2997.4c71.35 71.95 165.48 108 259.4 108 93.16 0 186.68-35.46 258.11-106.4l2997.1-2977.9c71.93-71.43 108.06-165.61 107.98-259.56 0.08-93.08-35.46-186.49-106.13-258l-2978-2997c-71.38-71.851-165.4-107.99-259.26-107.99h-0.32"/><path d="m3706.8 709.05c0-63.61-51.58-115.28-115.28-115.28-63.64 0-115.28 51.671-115.28 115.28 0 63.711 51.64 115.29 115.28 115.29 63.7 0 115.28-51.578 115.28-115.29"/><path d="m3706.8 6435.3c0-63.67-51.58-115.31-115.28-115.31-63.64 0-115.28 51.64-115.28 115.31 0 63.65 51.64 115.26 115.28 115.26 63.7 0 115.28-51.61 115.28-115.26"/><path d="m1325.7 4204.3h226.74v-243.19h4.26c27.52 116.57 171.6 241.56 319.99 241.56 55.1 0 69.9-4.2 91.07-6.34v-233.08c-33.93 4.22-69.95 10.59-103.81 10.59-165.26 0-296.67-133.52-296.67-375.08v-515.1h-241.58v1120.6"/><path d="m2565.6 3743.2c-8.45 152.53-112.23 290.2-275.41 290.2-167.21 0-281.67-127.08-288.03-290.2zm-563.44-158.9c0-171.66 93.24-324.11 294.45-324.11 139.8 0 224.47 61.4 266.9 182.22h228.78c-52.95-239.47-256.32-372.99-495.68-372.99-343.16 0-536.01 239.44-536.01 576.33 0 311.38 203.45 578.29 529.59 578.29 345.33 0 557.16-311.43 517.02-639.74h-805.05"/><path d="m2641.6 4204.4h229.23v349h245.32v-349h238.89v-193.4h-238.89v-593.82c0-101.14 8.56-152.75 118.31-152.75 34.37 0 68.78 0 103.27 8.61l55.12-161.52c-42.28-24.47-166.42-42.52-214.37-40.7-255.78 9.63-303.32 98.95-307.65 284v656.18h-229.23v193.4"/><path d="m3932 3647.8c-74.07-48.77-190.69-46.66-296.53-65.64-103.82-17.02-197.09-55.15-197.09-182.28 0-108.03 137.66-139.75 222.46-139.75 105.95 0 271.16 54.98 271.16 207.57zm241.47-305.04c0-59.42 12.74-82.63 57.2-82.63 14.82 0 34 0 59.35 4.2v-167.35c-11.56-4.03-24.31-15.08-41.57-19.06-36.66-8.4-83.59-8.56-111.02-8.56-97.36 0-167.32 33.96-186.37 133.52-95.27-93.2-249.98-133.52-379.19-133.52-197.11 0-375 106-375 319.88 0 273.35 218.16 317.8 421.53 341.11 173.77 31.82 328.44 12.79 328.44 154.63 0 125.04-129.19 148.36-226.64 148.36-135.65 0-230.91-55.14-241.55-173.71h-241.56c17.01 281.74 256.4 364.35 497.85 364.35 213.98 0 438.53-86.81 438.53-317.72v-563.5"/><path d="m4248.4 4554.9h246.51v-811.02l449.02 460.84h302.77l-431.77-419.76 469.24-707.07h-300.61l-341.59 542.74-147.06-142.69v-400.05h-246.51v1477"/><path d="m5839.3 3743.2c-8.5 152.53-112.23 290.2-275.42 290.2-167.34 0-281.75-127.08-288-290.2zm-563.42-158.9c0-171.66 93.14-324.11 294.34-324.11 139.83 0 224.55 61.4 266.91 182.22h228.8c-52.95-239.47-256.24-372.99-495.71-372.99-343.11 0-535.98 239.44-535.98 576.33 0 311.38 203.45 578.29 529.64 578.29 345.3 0 557.09-311.43 516.9-639.74h-804.9"/></g><g transform="scale(10)"><text transform="matrix(1 0 0 -1 605.1 398.78)" fill="#ffffff" font-family="Arial" font-size="32.132px"><tspan x="0" y="0">®</tspan></text>
</g></g></g></svg>
